<svg version="1.1" viewBox="0.0 0.0 192.0 192.0" fill="none" stroke="none" stroke-linecap="square" stroke-miterlimit="10" xmlns:xlink="http://www.w3.org/1999/xlink" xmlns="http://www.w3.org/2000/svg"><clipPath id="p.0"><path d="m0 0l192.0 0l0 192.0l-192.0 0l0 -192.0z" clip-rule="nonzero"/></clipPath><g clip-path="url(#p.0)"><path fill="#000000" fill-opacity="0.0" d="m0 0l192.0 0l0 192.0l-192.0 0z" fill-rule="evenodd"/><path fill="#000000" d="m79.88976 96.0l0 0c0 -8.897438 7.212799 -16.110237 16.110237 -16.110237l0 0c4.2726974 0 8.370399 1.6973267 11.391655 4.718582c3.0212555 3.0212555 4.718582 7.1189575 4.718582 11.391655l0 0c0 8.897438 -7.212799 16.110237 -16.110237 16.110237l0 0c-8.897438 0 -16.110237 -7.212799 -16.110237 -16.110237z" fill-rule="evenodd"/><path stroke="#000000" stroke-width="1.0" stroke-linejoin="round" stroke-linecap="butt" d="m79.88976 96.0l0 0c0 -8.897438 7.212799 -16.110237 16.110237 -16.110237l0 0c4.2726974 0 8.370399 1.6973267 11.391655 4.718582c3.0212555 3.0212555 4.718582 7.1189575 4.718582 11.391655l0 0c0 8.897438 -7.212799 16.110237 -16.110237 16.110237l0 0c-8.897438 0 -16.110237 -7.212799 -16.110237 -16.110237z" fill-rule="evenodd"/></g></svg>